P3
31 31
255
0 0 0 0 0 0 0 0 0 0 0 0 0 0 0 0 0 0 0 0 0 0 0 0 0 0 0 0 0 0 0 0 0 0 0 0 0 0 0 0 0 0 0 0 0 255 255 255 0 0 0 0 0 0 0 0 0 0 0 0 0 0 0 0 0 0 0 0 0 0 0 0 0 0 0 0 0 0 0 0 0 0 0 0 0 0 0 0 0 0 0 0 0 
0 0 0 0 0 0 255 255 255 255 255 255 255 255 255 255 255 255 255 255 255 255 255 255 255 255 255 255 255 255 255 255 255 255 255 255 255 255 255 0 0 0 0 0 0 255 255 255 0 0 0 0 0 0 255 255 255 255 255 255 255 255 255 255 255 255 255 255 255 255 255 255 255 255 255 255 255 255 255 255 255 255 255 255 255 255 255 0 0 0 0 0 0 
0 0 0 0 0 0 255 255 255 0 0 0 0 0 0 0 0 0 0 0 0 0 0 0 255 255 255 0 0 0 255 255 255 0 0 0 255 255 255 0 0 0 0 0 0 255 255 255 0 0 0 0 0 0 255 255 255 0 0 0 255 255 255 0 0 0 255 255 255 0 0 0 0 0 0 0 0 0 0 0 0 0 0 0 255 255 255 0 0 0 0 0 0 
0 0 0 0 0 0 255 255 255 0 0 0 127 127 127 255 255 255 255 255 255 0 0 0 255 255 255 0 0 0 255 255 255 0 0 0 255 255 255 255 255 255 255 255 255 255 255 255 255 255 255 255 255 255 255 255 255 0 0 0 255 255 255 0 0 0 255 255 255 0 0 0 255 255 255 255 255 255 127 127 127 0 0 0 255 255 255 0 0 0 0 0 0 
0 0 0 0 0 0 255 255 255 0 0 0 255 255 255 0 0 0 255 255 255 255 255 255 255 255 255 255 255 255 255 255 255 0 0 0 0 0 0 255 255 255 0 0 0 0 0 0 0 0 0 255 255 255 0 0 0 0 0 0 255 255 255 255 255 255 255 255 255 255 255 255 255 255 255 0 0 0 255 255 255 0 0 0 255 255 255 0 0 0 0 0 0 
0 0 0 0 0 0 255 255 255 0 0 0 255 255 255 0 0 0 0 0 0 0 0 0 0 0 0 0 0 0 255 255 255 0 0 0 255 255 255 255 255 255 255 255 255 255 255 255 255 255 255 255 255 255 255 255 255 0 0 0 255 255 255 0 0 0 0 0 0 0 0 0 0 0 0 0 0 0 255 255 255 0 0 0 255 255 255 0 0 0 0 0 0 
0 0 0 0 0 0 255 255 255 255 255 255 255 255 255 255 255 255 255 255 255 255 255 255 255 255 255 255 255 255 255 255 255 255 255 255 255 255 255 0 0 0 0 0 0 0 0 0 0 0 0 0 0 0 255 255 255 255 255 255 255 255 255 255 255 255 255 255 255 255 255 255 255 255 255 255 255 255 255 255 255 255 255 255 255 255 255 0 0 0 0 0 0 
0 0 0 0 0 0 0 0 0 0 0 0 0 0 0 255 255 255 0 0 0 255 255 255 0 0 0 0 0 0 0 0 0 0 0 0 255 255 255 255 255 255 255 255 255 0 0 0 255 255 255 255 255 255 255 255 255 0 0 0 0 0 0 0 0 0 0 0 0 255 255 255 0 0 0 255 255 255 0 0 0 0 0 0 0 0 0 0 0 0 0 0 0 
0 0 0 0 0 0 255 255 255 255 255 255 255 255 255 255 255 255 0 0 0 255 255 255 255 255 255 255 255 255 0 0 0 0 0 0 0 0 0 0 0 0 255 255 255 0 0 0 255 255 255 0 0 0 0 0 0 0 0 0 0 0 0 255 255 255 255 255 255 255 255 255 0 0 0 255 255 255 255 255 255 255 255 255 255 255 255 0 0 0 0 0 0 
0 0 0 0 0 0 255 255 255 0 0 0 255 255 255 0 0 0 0 0 0 0 0 0 0 0 0 255 255 255 255 255 255 255 255 255 255 255 255 255 255 255 255 255 255 0 0 0 255 255 255 255 255 255 255 255 255 255 255 255 255 255 255 255 255 255 0 0 0 0 0 0 0 0 0 0 0 0 255 255 255 0 0 0 255 255 255 0 0 0 0 0 0 
0 0 0 0 0 0 255 255 255 0 0 0 255 255 255 255 255 255 255 255 255 255 255 255 255 255 255 255 255 255 0 0 0 0 0 0 0 0 0 0 0 0 255 255 255 255 255 255 255 255 255 0 0 0 0 0 0 0 0 0 0 0 0 255 255 255 255 255 255 255 255 255 255 255 255 255 255 255 255 255 255 0 0 0 255 255 255 0 0 0 0 0 0 
0 0 0 0 0 0 255 255 255 0 0 0 255 255 255 0 0 0 0 0 0 0 0 0 0 0 0 255 255 255 255 255 255 255 255 255 0 0 0 0 0 0 255 255 255 0 0 0 255 255 255 0 0 0 0 0 0 255 255 255 255 255 255 255 255 255 0 0 0 0 0 0 0 0 0 0 0 0 255 255 255 0 0 0 255 255 255 0 0 0 0 0 0 
0 0 0 0 0 0 255 255 255 0 0 0 255 255 255 255 255 255 255 255 255 0 0 0 255 255 255 255 255 255 0 0 0 255 255 255 255 255 255 0 0 0 255 255 255 0 0 0 255 255 255 0 0 0 255 255 255 255 255 255 0 0 0 255 255 255 255 255 255 0 0 0 255 255 255 255 255 255 255 255 255 0 0 0 255 255 255 0 0 0 0 0 0 
0 0 0 0 0 0 255 255 255 255 255 255 255 255 255 0 0 0 255 255 255 0 0 0 255 255 255 0 0 0 0 0 0 0 0 0 255 255 255 255 255 255 255 255 255 255 255 255 255 255 255 255 255 255 255 255 255 0 0 0 0 0 0 0 0 0 255 255 255 0 0 0 255 255 255 0 0 0 255 255 255 255 255 255 255 255 255 0 0 0 0 0 0 
0 0 0 0 0 0 0 0 0 0 0 0 255 255 255 255 255 255 255 255 255 0 0 0 255 255 255 255 255 255 255 255 255 255 255 255 255 255 255 0 0 0 0 0 0 255 255 255 0 0 0 0 0 0 255 255 255 255 255 255 255 255 255 255 255 255 255 255 255 0 0 0 255 255 255 255 255 255 255 255 255 0 0 0 0 0 0 0 0 0 0 0 0 
255 255 255 255 255 255 255 255 255 255 255 255 255 255 255 0 0 0 255 255 255 255 255 255 255 255 255 0 0 0 0 0 0 0 0 0 255 255 255 0 0 0 255 255 255 255 255 255 255 255 255 0 0 0 255 255 255 0 0 0 0 0 0 0 0 0 255 255 255 255 255 255 255 255 255 0 0 0 255 255 255 255 255 255 255 255 255 255 255 255 255 255 255 
0 0 0 0 0 0 0 0 0 0 0 0 255 255 255 0 0 0 255 255 255 0 0 0 255 255 255 0 0 0 255 255 255 255 255 255 255 255 255 0 0 0 0 0 0 0 0 0 0 0 0 0 0 0 255 255 255 255 255 255 255 255 255 0 0 0 255 255 255 0 0 0 255 255 255 0 0 0 255 255 255 0 0 0 0 0 0 0 0 0 0 0 0 
0 0 0 0 0 0 255 255 255 255 255 255 255 255 255 0 0 0 255 255 255 0 0 0 255 255 255 255 255 255 255 255 255 0 0 0 255 255 255 255 255 255 255 255 255 255 255 255 255 255 255 255 255 255 255 255 255 0 0 0 255 255 255 255 255 255 255 255 255 0 0 0 255 255 255 0 0 0 255 255 255 255 255 255 255 255 255 0 0 0 0 0 0 
0 0 0 0 0 0 255 255 255 0 0 0 255 255 255 255 255 255 255 255 255 0 0 0 255 255 255 0 0 0 0 0 0 0 0 0 0 0 0 255 255 255 0 0 0 255 255 255 0 0 0 255 255 255 0 0 0 0 0 0 0 0 0 0 0 0 255 255 255 0 0 0 255 255 255 255 255 255 255 255 255 0 0 0 255 255 255 0 0 0 0 0 0 
0 0 0 0 0 0 255 255 255 0 0 0 255 255 255 0 0 0 0 0 0 0 0 0 255 255 255 255 255 255 255 255 255 255 255 255 255 255 255 255 255 255 0 0 0 255 255 255 0 0 0 255 255 255 255 255 255 255 255 255 255 255 255 255 255 255 255 255 255 0 0 0 0 0 0 0 0 0 255 255 255 0 0 0 255 255 255 0 0 0 0 0 0 
0 0 0 0 0 0 255 255 255 0 0 0 255 255 255 255 255 255 255 255 255 255 255 255 255 255 255 0 0 0 255 255 255 0 0 0 255 255 255 0 0 0 0 0 0 255 255 255 0 0 0 0 0 0 255 255 255 0 0 0 255 255 255 0 0 0 255 255 255 255 255 255 255 255 255 255 255 255 255 255 255 0 0 0 255 255 255 0 0 0 0 0 0 
0 0 0 0 0 0 255 255 255 0 0 0 0 0 0 255 255 255 0 0 0 0 0 0 0 0 0 0 0 0 255 255 255 0 0 0 255 255 255 255 255 255 255 255 255 255 255 255 255 255 255 255 255 255 255 255 255 0 0 0 255 255 255 0 0 0 0 0 0 0 0 0 0 0 0 255 255 255 0 0 0 0 0 0 255 255 255 0 0 0 0 0 0 
0 0 0 0 0 0 255 255 255 255 255 255 255 255 255 255 255 255 255 255 255 255 255 255 255 255 255 255 255 255 255 255 255 0 0 0 255 255 255 0 0 0 0 0 0 0 0 0 0 0 0 0 0 0 255 255 255 0 0 0 255 255 255 255 255 255 255 255 255 255 255 255 255 255 255 255 255 255 255 255 255 255 255 255 255 255 255 0 0 0 0 0 0 
0 0 0 0 0 0 255 255 255 0 0 0 255 255 255 0 0 0 255 255 255 0 0 0 255 255 255 0 0 0 255 255 255 0 0 0 255 255 255 255 255 255 255 255 255 0 0 0 255 255 255 255 255 255 255 255 255 0 0 0 255 255 255 0 0 0 255 255 255 0 0 0 255 255 255 0 0 0 255 255 255 0 0 0 255 255 255 0 0 0 0 0 0 
0 0 0 0 0 0 255 255 255 0 0 0 255 255 255 0 0 0 255 255 255 0 0 0 255 255 255 0 0 0 255 255 255 0 0 0 0 0 0 0 0 0 255 255 255 0 0 0 255 255 255 0 0 0 0 0 0 0 0 0 255 255 255 0 0 0 255 255 255 0 0 0 255 255 255 0 0 0 255 255 255 0 0 0 255 255 255 0 0 0 0 0 0 
0 0 0 0 0 0 255 255 255 0 0 0 255 255 255 0 0 0 255 255 255 0 0 0 255 255 255 0 0 0 255 255 255 255 255 255 255 255 255 0 0 0 255 255 255 255 255 255 255 255 255 0 0 0 255 255 255 255 255 255 255 255 255 0 0 0 255 255 255 0 0 0 255 255 255 0 0 0 255 255 255 0 0 0 255 255 255 0 0 0 0 0 0 
0 0 0 0 0 0 255 255 255 0 0 0 255 255 255 0 0 0 255 255 255 0 0 0 255 255 255 0 0 0 0 0 0 0 0 0 255 255 255 0 0 0 0 0 0 255 255 255 0 0 0 0 0 0 255 255 255 0 0 0 0 0 0 0 0 0 255 255 255 0 0 0 255 255 255 0 0 0 255 255 255 0 0 0 255 255 255 0 0 0 0 0 0 
0 0 0 0 0 0 255 255 255 0 0 0 127 127 127 255 255 255 255 255 255 255 255 255 255 255 255 255 255 255 255 255 255 0 0 0 255 255 255 255 255 255 255 255 255 255 255 255 255 255 255 255 255 255 255 255 255 0 0 0 255 255 255 255 255 255 255 255 255 255 255 255 255 255 255 255 255 255 127 127 127 0 0 0 255 255 255 0 0 0 0 0 0 
0 0 0 0 0 0 255 255 255 0 0 0 0 0 0 0 0 0 0 0 0 0 0 0 255 255 255 0 0 0 255 255 255 0 0 0 255 255 255 0 0 0 0 0 0 255 255 255 0 0 0 0 0 0 255 255 255 0 0 0 255 255 255 0 0 0 255 255 255 0 0 0 0 0 0 0 0 0 0 0 0 0 0 0 255 255 255 0 0 0 0 0 0 
0 0 0 0 0 0 255 255 255 255 255 255 255 255 255 255 255 255 255 255 255 255 255 255 255 255 255 255 255 255 255 255 255 255 255 255 255 255 255 255 255 255 0 0 0 255 255 255 0 0 0 255 255 255 255 255 255 255 255 255 255 255 255 255 255 255 255 255 255 255 255 255 255 255 255 255 255 255 255 255 255 255 255 255 255 255 255 0 0 0 0 0 0 
0 0 0 0 0 0 0 0 0 0 0 0 0 0 0 0 0 0 0 0 0 0 0 0 0 0 0 0 0 0 0 0 0 0 0 0 0 0 0 0 0 0 0 0 0 255 255 255 0 0 0 0 0 0 0 0 0 0 0 0 0 0 0 0 0 0 0 0 0 0 0 0 0 0 0 0 0 0 0 0 0 0 0 0 0 0 0 0 0 0 0 0 0 
